<svg version="1.1" viewBox="0.0 0.0 960.0 720.0" fill="none" stroke="none" stroke-linecap="square" stroke-miterlimit="10" xmlns:xlink="http://www.w3.org/1999/xlink" xmlns="http://www.w3.org/2000/svg"><clipPath id="p.0"><path d="m0 0l960.0 0l0 720.0l-960.0 0l0 -720.0z" clip-rule="nonzero"/></clipPath><g clip-path="url(#p.0)"><path fill="#000000" fill-opacity="0.0" d="m0 0l960.0 0l0 720.0l-960.0 0z" fill-rule="evenodd"/><path fill="#d9d9d9" d="m201.07611 363.67453l0 0c0 -145.70749 124.88083 -263.82675 278.92914 -263.82675l0 0c73.97662 0 144.92334 27.795952 197.23267 77.27306c52.309387 49.477127 81.69647 116.582504 81.69647 186.5537l0 0c0 145.70752 -124.88086 263.8268 -278.92914 263.8268l0 0c-154.04831 0 -278.92914 -118.11929 -278.92914 -263.8268z" fill-rule="evenodd"/><path stroke="#d9d9d9" stroke-width="1.0" stroke-linejoin="round" stroke-linecap="butt" d="m201.07611 363.67453l0 0c0 -145.70749 124.88083 -263.82675 278.92914 -263.82675l0 0c73.97662 0 144.92334 27.795952 197.23267 77.27306c52.309387 49.477127 81.69647 116.582504 81.69647 186.5537l0 0c0 145.70752 -124.88086 263.8268 -278.92914 263.8268l0 0c-154.04831 0 -278.92914 -118.11929 -278.92914 -263.8268z" fill-rule="evenodd"/><path fill="#6f9fe9" d="m346.6103 390.67615l0 0c0 -60.386017 59.331085 -109.33856 132.51968 -109.33856l0 0c73.18863 0 132.51968 48.952545 132.51968 109.33856l0 0c0 60.386047 -59.331055 109.33859 -132.51968 109.33859l0 0c-73.1886 0 -132.51968 -48.952545 -132.51968 -109.33859z" fill-rule="evenodd"/><path stroke="#6f9fe9" stroke-width="3.7821522309711284" stroke-linejoin="round" stroke-linecap="butt" d="m346.6103 390.67615l0 0c0 -60.386017 59.331085 -109.33856 132.51968 -109.33856l0 0c73.18863 0 132.51968 48.952545 132.51968 109.33856l0 0c0 60.386047 -59.331055 109.33859 -132.51968 109.33859l0 0c-73.1886 0 -132.51968 -48.952545 -132.51968 -109.33859z" fill-rule="evenodd"/><path fill="#6f9fe9" d="m328.51114 341.98758c-7.2488403 3.3431702 -15.916321 10.533173 -20.800995 17.052765c-4.884674 6.519623 -7.2273254 12.389923 -8.507019 22.06491c-1.2796936 9.674988 -1.5344849 25.45456 0.8288574 35.985107c2.3633423 10.530548 8.289459 19.822968 13.351166 27.19812c5.061676 7.3751526 11.493225 12.932159 17.018982 17.052765c5.525757 4.1206055 9.043884 6.3335876 16.13556 7.670868c7.0916443 1.3372498 23.903015 2.4674377 26.414429 0.3527527c2.5114136 -2.1147156 -6.993225 -7.568207 -11.346008 -13.040985c-4.3527527 -5.472809 -11.116028 -13.913208 -14.77063 -19.795776c-3.654602 -5.8825684 -5.391754 -9.426666 -7.157013 -15.499664c-1.7652588 -6.0729675 -3.6372375 -11.483459 -3.4345703 -20.938202c0.20266724 -9.454773 2.1573486 -25.6055 4.6505737 -35.790314c2.4931946 -10.184814 12.372559 -21.599854 10.308685 -25.318573c-2.0639038 -3.7187195 -15.443176 -0.33694458 -22.692017 3.0062256z" fill-rule="evenodd"/><path stroke="#6f9fe9" stroke-width="3.7821522309711284" stroke-linejoin="round" stroke-linecap="butt" d="m328.51114 341.98758c-7.2488403 3.3431702 -15.916321 10.533173 -20.800995 17.052765c-4.884674 6.519623 -7.2273254 12.389923 -8.507019 22.06491c-1.2796936 9.674988 -1.5344849 25.45456 0.8288574 35.985107c2.3633423 10.530548 8.289459 19.822968 13.351166 27.19812c5.061676 7.3751526 11.493225 12.932159 17.018982 17.052765c5.525757 4.1206055 9.043884 6.3335876 16.13556 7.670868c7.0916443 1.3372498 23.903015 2.4674377 26.414429 0.3527527c2.5114136 -2.1147156 -6.993225 -7.568207 -11.346008 -13.040985c-4.3527527 -5.472809 -11.116028 -13.913208 -14.77063 -19.795776c-3.654602 -5.8825684 -5.391754 -9.426666 -7.157013 -15.499664c-1.7652588 -6.0729675 -3.6372375 -11.483459 -3.4345703 -20.938202c0.20266724 -9.454773 2.1573486 -25.6055 4.6505737 -35.790314c2.4931946 -10.184814 12.372559 -21.599854 10.308685 -25.318573c-2.0639038 -3.7187195 -15.443176 -0.33694458 -22.692017 3.0062256z" fill-rule="evenodd"/><path fill="#6f9fe9" d="m403.61765 480.20517c-4.4123535 1.6716003 -1.8240051 10.833282 -3.782013 16.04721c-1.9580078 5.213928 -11.432861 14.56778 -7.9660034 15.23642c3.4668274 0.6686096 23.027008 -7.0136414 28.766998 -11.224609c5.7400208 -4.2109985 8.5095215 -10.698151 5.673004 -14.041321c-2.8364868 -3.3431396 -18.279663 -7.68927 -22.691986 -6.0177z" fill-rule="evenodd"/><path stroke="#6f9fe9" stroke-width="1.889763779527559" stroke-linejoin="round" stroke-linecap="butt" d="m403.61765 480.20517c-4.4123535 1.6716003 -1.8240051 10.833282 -3.782013 16.04721c-1.9580078 5.213928 -11.432861 14.56778 -7.9660034 15.23642c3.4668274 0.6686096 23.027008 -7.0136414 28.766998 -11.224609c5.7400208 -4.2109985 8.5095215 -10.698151 5.673004 -14.041321c-2.8364868 -3.3431396 -18.279663 -7.68927 -22.691986 -6.0177z" fill-rule="evenodd"/><path fill="#6f9fe9" d="m631.4937 341.98758c7.2488403 3.3431702 15.916321 10.533173 20.801025 17.052765c4.8846436 6.519623 7.227295 12.389923 8.507019 22.06491c1.2796631 9.674988 1.5344849 25.45456 -0.8288574 35.985107c-2.3633423 10.530548 -8.28949 19.822968 -13.351196 27.19812c-5.0616455 7.3751526 -11.493225 12.932159 -17.018982 17.052765c-5.525757 4.1206055 -9.043884 6.3335876 -16.13556 7.670868c-7.091614 1.3372498 -23.903015 2.4674377 -26.414429 0.3527527c-2.5114136 -2.1147156 6.993225 -7.568207 11.346008 -13.040985c4.352783 -5.472809 11.116028 -13.913208 14.77063 -19.795776c3.654602 -5.8825684 5.3917847 -9.426666 7.1570435 -15.499664c1.7652588 -6.0729675 3.637207 -11.483459 3.4345703 -20.938202c-0.20269775 -9.454773 -2.1573486 -25.6055 -4.6505737 -35.790314c-2.493225 -10.184814 -12.372559 -21.599854 -10.308716 -25.318573c2.0639038 -3.7187195 15.443176 -0.33694458 22.692017 3.0062256z" fill-rule="evenodd"/><path stroke="#6f9fe9" stroke-width="3.7821522309711284" stroke-linejoin="round" stroke-linecap="butt" d="m631.4937 341.98758c7.2488403 3.3431702 15.916321 10.533173 20.801025 17.052765c4.8846436 6.519623 7.227295 12.389923 8.507019 22.06491c1.2796631 9.674988 1.5344849 25.45456 -0.8288574 35.985107c-2.3633423 10.530548 -8.28949 19.822968 -13.351196 27.19812c-5.0616455 7.3751526 -11.493225 12.932159 -17.018982 17.052765c-5.525757 4.1206055 -9.043884 6.3335876 -16.13556 7.670868c-7.091614 1.3372498 -23.903015 2.4674377 -26.414429 0.3527527c-2.5114136 -2.1147156 6.993225 -7.568207 11.346008 -13.040985c4.352783 -5.472809 11.116028 -13.913208 14.77063 -19.795776c3.654602 -5.8825684 5.3917847 -9.426666 7.1570435 -15.499664c1.7652588 -6.0729675 3.637207 -11.483459 3.4345703 -20.938202c-0.20269775 -9.454773 -2.1573486 -25.6055 -4.6505737 -35.790314c-2.493225 -10.184814 -12.372559 -21.599854 -10.308716 -25.318573c2.0639038 -3.7187195 15.443176 -0.33694458 22.692017 3.0062256z" fill-rule="evenodd"/><path fill="#fef1e2" d="m408.7388 387.81534l0 0c0 -25.013397 20.277374 -45.29077 45.29077 -45.29077l51.93814 0l0 0c12.011841 0 23.531738 4.771698 32.02539 13.26535c8.493713 8.493683 13.265381 20.01355 13.265381 32.02542l0 5.7019043l0 0c0 25.013397 -20.277344 45.29077 -45.29077 45.29077l-51.93814 0c-25.013397 0 -45.29077 -20.277374 -45.29077 -45.29077z" fill-rule="evenodd"/><path stroke="#fef1e2" stroke-width="1.889763779527559" stroke-linejoin="round" stroke-linecap="butt" d="m408.7388 387.81534l0 0c0 -25.013397 20.277374 -45.29077 45.29077 -45.29077l51.93814 0l0 0c12.011841 0 23.531738 4.771698 32.02539 13.26535c8.493713 8.493683 13.265381 20.01355 13.265381 32.02542l0 5.7019043l0 0c0 25.013397 -20.277344 45.29077 -45.29077 45.29077l-51.93814 0c-25.013397 0 -45.29077 -20.277374 -45.29077 -45.29077z" fill-rule="evenodd"/><path fill="#6f9fe9" d="m427.67596 383.02115c-0.14535522 -1.3562927 7.466919 -9.362946 11.5877075 -11.398804c4.120819 -2.0358582 9.016296 -2.8515015 13.137085 -0.8163452c4.1207886 2.0351562 11.829041 11.534851 11.5877075 13.027191c-0.24130249 1.4923401 -9.060211 -3.3942566 -13.035675 -4.07312c-3.9754639 -0.6788635 -6.937622 -0.54351807 -10.817078 0c-3.879486 0.54351807 -12.314423 4.61734 -12.459747 3.261078z" fill-rule="evenodd"/><path stroke="#6f9fe9" stroke-width="1.889763779527559" stroke-linejoin="round" stroke-linecap="butt" d="m427.67596 383.02115c-0.14535522 -1.3562927 7.466919 -9.362946 11.5877075 -11.398804c4.120819 -2.0358582 9.016296 -2.8515015 13.137085 -0.8163452c4.1207886 2.0351562 11.829041 11.534851 11.5877075 13.027191c-0.24130249 1.4923401 -9.060211 -3.3942566 -13.035675 -4.07312c-3.9754639 -0.6788635 -6.937622 -0.54351807 -10.817078 0c-3.879486 0.54351807 -12.314423 4.61734 -12.459747 3.261078z" fill-rule="evenodd"/><path fill="#6f9fe9" d="m497.37604 383.02115c-0.14535522 -1.3562927 7.466919 -9.362946 11.5877075 -11.398804c4.1207886 -2.0358582 9.016296 -2.8515015 13.137085 -0.8163452c4.1207886 2.0351562 11.829041 11.534851 11.5877075 13.027191c-0.24133301 1.4923401 -9.060181 -3.3942566 -13.035645 -4.07312c-3.9754639 -0.6788635 -6.937622 -0.54351807 -10.817139 0c-3.8794556 0.54351807 -12.314392 4.61734 -12.459717 3.261078z" fill-rule="evenodd"/><path stroke="#6f9fe9" stroke-width="1.889763779527559" stroke-linejoin="round" stroke-linecap="butt" d="m497.37604 383.02115c-0.14535522 -1.3562927 7.466919 -9.362946 11.5877075 -11.398804c4.1207886 -2.0358582 9.016296 -2.8515015 13.137085 -0.8163452c4.1207886 2.0351562 11.829041 11.534851 11.5877075 13.027191c-0.24133301 1.4923401 -9.060181 -3.3942566 -13.035645 -4.07312c-3.9754639 -0.6788635 -6.937622 -0.54351807 -10.817139 0c-3.8794556 0.54351807 -12.314392 4.61734 -12.459717 3.261078z" fill-rule="evenodd"/><path fill="#6f9fe9" d="m502.9427 416.42667c-2.2223816 2.8013306 -8.5494995 5.164551 -12.964233 6.211029c-4.4147034 1.0464783 -8.437439 1.1047058 -13.524078 0.06781006c-5.0866394 -1.0369263 -13.566711 -3.3859863 -16.995667 -6.2892456c-3.4289856 -2.9032898 -10.887146 -9.366089 -3.5781555 -11.130463c7.309021 -1.7644043 39.58844 -1.3127441 47.43213 0.5440674c7.843689 1.856842 1.852356 7.7955017 -0.36999512 10.596802z" fill-rule="evenodd"/><path stroke="#6f9fe9" stroke-width="1.889763779527559" stroke-linejoin="round" stroke-linecap="butt" d="m502.9427 416.42667c-2.2223816 2.8013306 -8.5494995 5.164551 -12.964233 6.211029c-4.4147034 1.0464783 -8.437439 1.1047058 -13.524078 0.06781006c-5.0866394 -1.0369263 -13.566711 -3.3859863 -16.995667 -6.2892456c-3.4289856 -2.9032898 -10.887146 -9.366089 -3.5781555 -11.130463c7.309021 -1.7644043 39.58844 -1.3127441 47.43213 0.5440674c7.843689 1.856842 1.852356 7.7955017 -0.36999512 10.596802z" fill-rule="evenodd"/><path fill="#f3f3f3" d="m384.31207 251.92897c-1.5266724 6.478012 4.429138 15.678574 7.7506714 21.853592c3.3215332 6.1750183 6.2239685 14.062317 12.178467 15.196442c5.954529 1.1341248 14.127747 -5.697052 23.548553 -8.391724c9.420837 -2.6947021 23.052948 -6.31839 32.97638 -7.776428c9.923462 -1.4580078 15.376221 -1.9062805 26.5643 -0.9717102c11.18811 0.93460083 29.724426 3.5016785 40.56433 6.579193c10.839905 3.0775452 19.02185 9.419128 24.475037 11.885986c5.453186 2.4668274 4.3084106 5.013031 8.244141 2.9151c3.935669 -2.097931 11.891907 -11.651154 15.370056 -15.502716c3.4781494 -3.851532 3.437439 -4.357361 5.498657 -7.6065674c2.0612793 -3.249237 7.5551147 -7.110504 6.8687744 -11.888763c-0.68634033 -4.778244 -6.9194946 -12.188065 -10.986877 -16.780685c-4.067322 -4.592621 -7.1189575 -6.231613 -13.417297 -10.775055c-6.29834 -4.5434265 -13.8932495 -11.849304 -24.372742 -16.48555c-10.479431 -4.6362457 -25.369202 -9.767166 -38.503906 -11.331909c-13.134735 -1.564743 -28.549011 -0.4858551 -40.304474 1.9434052c-11.755463 2.4292603 -20.304443 7.611679 -30.228333 12.632156c-9.923889 5.020462 -21.610687 11.739792 -29.314972 17.490662c-7.7042847 5.750885 -15.384064 10.536545 -16.910767 17.014572z" fill-rule="evenodd"/><path fill="#e06666" d="m469.96417 231.23935l11.142914 0l0 -11.906754l10.489563 0l0 11.906754l11.142914 0l0 10.489548l-11.142914 0l0 11.906738l-10.489563 0l0 -11.906738l-11.142914 0z" fill-rule="evenodd"/><path stroke="#e06666" stroke-width="1.889763779527559" stroke-linejoin="round" stroke-linecap="butt" d="m469.96417 231.23935l11.142914 0l0 -11.906754l10.489563 0l0 11.906754l11.142914 0l0 10.489548l-11.142914 0l0 11.906738l-10.489563 0l0 -11.906738l-11.142914 0z" fill-rule="evenodd"/><path fill="#f3f3f3" d="m403.1083 202.5603c-0.27514648 6.0557556 6.211731 22.51625 9.561676 27.099121c3.3499756 4.5828857 6.4326477 2.7243958 10.538055 0.39814758c4.105438 -2.326233 8.570892 -11.48317 14.094513 -14.355591c5.5236206 -2.8724213 10.920807 -2.2209167 19.047241 -2.8789215c8.126404 -0.65800476 19.062561 -1.6014099 29.711273 -1.0691528c10.648743 0.5322571 25.214355 2.7823944 34.18112 4.2626953c8.966736 1.4802856 15.135132 3.5527039 19.619385 4.6190643c4.484253 1.0663757 4.4383545 -0.7628784 7.286133 1.7791443c2.8477783 2.5420227 6.9457397 13.656754 9.800476 13.472992c2.8547974 -0.1837616 5.2248535 -9.553696 7.328125 -14.575562c2.1032104 -5.021866 5.904175 -11.542114 5.291321 -15.555618c-0.612854 -4.013489 -5.649597 -6.192169 -8.968506 -8.525375c-3.3189087 -2.3332062 -5.807068 -3.1652374 -10.944885 -5.4738464c-5.1377563 -2.308609 -11.3377075 -5.7977295 -19.881897 -8.377808c-8.544189 -2.5800781 -20.828491 -6.1559753 -31.383179 -7.1026306c-10.5546875 -0.94664 -21.85608 0.4162445 -31.944885 1.42276c-10.088806 1.0065002 -19.900696 2.012085 -28.587921 4.616287c-8.687225 2.6042023 -17.74411 7.6348877 -23.53543 11.008926c-5.7913513 3.374054 -10.9374695 3.1796265 -11.212616 9.235367z" fill-rule="evenodd"/></g></svg>